<?xml version="1.0" encoding="UTF-8"?>
<svg id="Layer_1" xmlns="http://www.w3.org/2000/svg" version="1.1" viewBox="0 0 684 684">
  <!-- Generator: Adobe Illustrator 29.6.1, SVG Export Plug-In . SVG Version: 2.1.1 Build 9)  -->
  <defs>
    <style>
      .st0 {
        stroke-width: 23.28px;
      }

      .st0, .st1 {
        stroke-linejoin: round;
      }

      .st0, .st1, .st2, .st3, .st4, .st5 {
        stroke: #ee3924;
      }

      .st0, .st1, .st3 {
        stroke-linecap: round;
      }

      .st0, .st6, .st3 {
        fill: #fff;
      }

      .st1 {
        stroke-width: 6.4px;
      }

      .st1, .st7, .st4, .st5 {
        fill: #ee3924;
      }

      .st2 {
        fill: none;
      }

      .st2, .st3, .st4, .st5 {
        stroke-miterlimit: 10;
      }

      .st2, .st4 {
        stroke-width: 13.3px;
      }

      .st3 {
        stroke-width: 14.41px;
      }

      .st5 {
        stroke-width: 8.57px;
      }
    </style>
  </defs>
  <g>
    <path class="st6" d="M185.37,244.15c26.67,5.48,54.33,8.08,78.91,35.03,12.77,14,14.84,21.77,18.68,34.74,0,0,0,.02,0,.03,2.81,10.05,2.5,20.73.19,30.91l-5.11,22.55s173.12,178.07,340.06,57.42l4.61-12.65c.41-1.13.79-2.27,1.15-3.42l6.97-22.78c7.83-30.22,11.12-62.44,9.03-95.77-6.07-96.95-56.5-153.13-131.97-199.16-56.57-34.5-109.37-28.23-174.97-45.2-29.01-7.5-66.88-14.74-131.74,8.21-62.43,22.09-72.75,32.86-108.65,62.9-1.5,1.25-16.48,18.6-15.95,20.54l3.66,13.31c5.51,20.02,16.47,38.21,25.35,56.83l13.38,23.16,1.24,2.6,40.55,8.38s129.7,24.98,153.55-43.12"/>
    <path class="st7" d="M186.68,237.76c34.83,4.07,62.35,9.76,86.82,37.41,5.73,6.2,11.12,13.58,14.38,21.58,3.27,8.37,5.81,15.79,6.9,24.59,2.03,16.84-3.47,32.25-7.17,48.22,0,0-2.53-9-2.53-9,.98.92,2.99,2.85,3.99,3.75,9.84,8.97,20.28,17.44,30.99,25.37,86.76,65.07,197.83,95.68,291.47,26.03,0,0-3.97,5.26-3.97,5.26,1.37-3.9,3.61-9.75,4.89-13.53,1.13-3.24,3.02-9.83,4.15-13.41.72-2.35,2.46-8.07,3.16-10.35,1.52-5.51,2.73-11.26,3.88-16.86,14.12-72.17,2.96-153.65-49.24-208.55-18.82-20.6-41.64-37.95-65.36-52.95-7.82-4.83-15.83-9.8-24.16-13.58-34.19-16.44-72.21-19.6-109.89-25.54-9.73-1.53-19.52-3.27-29.29-5.37-9.41-1.93-19.04-4.71-28.34-6.69-17.98-3.91-36.03-4.89-54.29-2.89-25.23,2.6-50.36,10.61-74.28,19.83-19.63,7.4-38.75,15.78-55.68,28.04-10.69,7.56-22.24,17.85-32.66,26.4,0,0-.75.8-.75.8,0,0-1.1,1.23-1.1,1.23-3.81,4.39-8.26,9.53-11.29,14.11,0,0,.05-.11.05-.11,0,0,.1-.22.1-.22.07-.17.25-.56.43-1.28.14-.61.25-.95.33-2.27.22-.75-.61-4.56-.38-3.32,0,0,.12.44.12.44l.24.88c.85,3.21,2.51,9.08,3.37,12.26,5.4,19.09,15.79,36.24,24.51,54.57,0,0-.43-.81-.43-.81,0,0,13.37,23.16,13.37,23.16.14.2.32.6.43.81,0,0,1.24,2.6,1.24,2.6,0,0-8.15-6.39-8.15-6.39,10.62,2.39,31.6,7.25,41.9,9.52,42.19,7.67,124.37,13.64,143.17-35.2,0,0,13.36,4.68,13.36,4.68-3.06,9.47-8.56,18.34-15.67,25.39-13.99,13.91-32.77,21.08-51.45,25.1-29.54,6.05-59.82,5.43-89.57,1.72-5.21-.63-15.04-2.61-20.19-3.52-2.87-.59-29.32-5.36-31.93-6.06-.71-1.52-3.02-6.3-3.73-7.82,0,0,.43.81.43.81,0,0-13.39-23.15-13.39-23.15l-.23-.39c-4.1-8.61-8.72-17.25-13.2-26.37-5.5-11.04-10.75-23.44-13.95-35.93,0,0-1.94-7.02-1.94-7.02,0,0-.48-1.76-.48-1.76,0,0-.24-.88-.24-.88l-.12-.44c.19,1.1-.68-2.87-.44-3.77.08-1.47.23-1.96.4-2.72.41-1.63.74-2.09,1.29-3.28,3.42-6.01,7.75-10.78,12-15.93,2.02-2.25,3.99-4.78,6.25-6.83.69-.58,2.03-1.71,2.76-2.32,10.5-8.73,20.49-17.5,31.86-25.71,24.74-17.9,53.45-28.54,81.94-38.56,38.11-13.35,80.86-19.55,120.84-10.28,9.71,2.06,18.76,4.75,28.38,6.74,52.7,11.23,109.79,11.46,157.85,39.96,47.61,28,92.55,64.73,117.8,115.07,29.67,59.35,31.48,129.44,16.15,193.02-1,4.29-2.98,10.07-4.22,14.3-1.38,4.42-2.94,9.82-4.5,14.42-1.44,4.3-3.55,9.63-5.04,13.87,0,0-1.19,3.25-1.19,3.25,0,0-2.78,2-2.78,2-54.76,40.27-121.9,53.51-187.82,37.09-61.03-14.98-116.16-49.33-161.41-92.32-2.31-2.29-5.74-5.79-8.03-8.15,1.84-9.21,3.76-18.49,5.77-27.64,1.41-6.56,1.96-13.05,1.24-19.27-.36-3.46-.95-5.84-2-9.37-1.97-6.85-3.69-12.53-7.39-18.36-13.32-21.2-34.94-33.84-58.99-39.68-7.11-1.96-14.52-3.6-22-5.69,0,0,2.62-12.77,2.62-12.77h0Z"/>
  </g>
  <path class="st7" d="M267.28,370.68c22.58-94.83,113.44-164.43,210.74-160.78,0,0,0,7.18,0,7.18-67.34,1.32-132.29,39.13-166,97.29-11.17,18.95-19,39.73-23.1,61.11,0,0-21.64-4.8-21.64-4.8h0Z"/>
  <path class="st0" d="M233.14,342.7c-15.82-7.35-32.06-13.57-48.1-17.77-36.71-9.61-72.34-8.62-99.34,13.73-45.19,37.42-47.04,86.59-37.59,126.41,10.37,43.7,36.29,81.55,70.51,109.48,54.41,44.41,123.19,70.92,197.98,70.92,146.93,0,270.67-102.32,307.77-241.59h-.05c-54.38,56.03-119.83,62.07-171.58,54.16-42-6.42-81.44-24.56-115.53-50.65-24.21-18.53-62.68-45.46-104.06-64.69"/>
  <path class="st1" d="M175.52,143.69c15.2,13.41,37.96,6.29,50.89-15.93l-.04-.55c-15.2-13.41-37.96-6.29-50.89,15.93l.04.55Z"/>
  <path class="st5" d="M290.47,74.93h30.55c3.11,0,5.62,2.52,5.62,5.62v20.7"/>
  <polyline class="st3" points="117.18 236.04 136.55 274.93 171.87 281.5 172.96 248.7"/>
  <g>
    <polyline class="st2" points="70.39 518.37 189.01 518.37 241.42 518.37 347.25 477.08"/>
    <line class="st2" x1="87.73" y1="546.06" x2="389.74" y2="546.06"/>
    <polyline class="st2" points="112.35 572.97 273.32 572.97 322.39 588.28"/>
    <polyline class="st2" points="57.46 493.57 158.56 493.57 223.54 457.65"/>
    <circle class="st4" cx="233.1" cy="453.17" r="8.32"/>
    <circle class="st4" cx="349.38" cy="475.61" r="8.32"/>
    <circle class="st4" cx="398.06" cy="546.06" r="8.32"/>
    <circle class="st4" cx="328.83" cy="590.16" r="8.32"/>
  </g>
</svg>