<svg id="visual" viewBox="0 0 960 540" width="960" height="540" xmlns="http://www.w3.org/2000/svg" xmlns:xlink="http://www.w3.org/1999/xlink" version="1.1"><rect width="960" height="540" fill="#0a0a0a"></rect><g><g transform="translate(623 479)"><path d="M0 -34L29.4 -17L29.4 17L0 34L-29.4 17L-29.4 -17Z" fill="none" stroke="#ea580c" stroke-width="2"></path></g><g transform="translate(820 485)"><path d="M0 -16L13.9 -8L13.9 8L0 16L-13.9 8L-13.9 -8Z" fill="none" stroke="#ea580c" stroke-width="2"></path></g><g transform="translate(798 204)"><path d="M0 -13L11.3 -6.5L11.3 6.5L0 13L-11.3 6.5L-11.3 -6.5Z" fill="none" stroke="#ea580c" stroke-width="2"></path></g><g transform="translate(308 492)"><path d="M0 -18L15.6 -9L15.6 9L0 18L-15.6 9L-15.6 -9Z" fill="none" stroke="#ea580c" stroke-width="2"></path></g><g transform="translate(787 422)"><path d="M0 -22L19.1 -11L19.1 11L0 22L-19.1 11L-19.1 -11Z" fill="none" stroke="#ea580c" stroke-width="2"></path></g><g transform="translate(889 248)"><path d="M0 -24L20.8 -12L20.8 12L0 24L-20.8 12L-20.8 -12Z" fill="none" stroke="#ea580c" stroke-width="2"></path></g><g transform="translate(703 464)"><path d="M0 -20L17.3 -10L17.3 10L0 20L-17.3 10L-17.3 -10Z" stroke="#ea580c" fill="none" stroke-width="2"></path></g><g transform="translate(349 89)"><path d="M0 -14L12.1 -7L12.1 7L0 14L-12.1 7L-12.1 -7Z" stroke="#ea580c" fill="none" stroke-width="2"></path></g><g transform="translate(9 496)"><path d="M0 -18L15.6 -9L15.6 9L0 18L-15.6 9L-15.6 -9Z" stroke="#ea580c" fill="none" stroke-width="2"></path></g><g transform="translate(478 151)"><path d="M0 -17L14.7 -8.5L14.7 8.5L0 17L-14.7 8.5L-14.7 -8.5Z" stroke="#ea580c" fill="none" stroke-width="2"></path></g><g transform="translate(697 97)"><path d="M0 -23L19.9 -11.5L19.9 11.5L0 23L-19.9 11.5L-19.9 -11.5Z" stroke="#ea580c" fill="none" stroke-width="2"></path></g><g transform="translate(456 443)"><path d="M0 -14L12.1 -7L12.1 7L0 14L-12.1 7L-12.1 -7Z" stroke="#ea580c" fill="none" stroke-width="2"></path></g><g transform="translate(101 169)"><path d="M0 -28L24.2 -14L24.2 14L0 28L-24.2 14L-24.2 -14Z" stroke="#ea580c" fill="none" stroke-width="2"></path></g><g transform="translate(221 38)"><path d="M0 -12L10.4 -6L10.4 6L0 12L-10.4 6L-10.4 -6Z" stroke="#ea580c" fill="none" stroke-width="2"></path></g><g transform="translate(121 345)"><path d="M0 -32L27.7 -16L27.7 16L0 32L-27.7 16L-27.7 -16Z" stroke="#ea580c" fill="none" stroke-width="2"></path></g><g transform="translate(452 35)"><path d="M0 -22L19.1 -11L19.1 11L0 22L-19.1 11L-19.1 -11Z" stroke="#ea580c" fill="none" stroke-width="2"></path></g><g transform="translate(905 487)"><path d="M0 -21L18.2 -10.5L18.2 10.5L0 21L-18.2 10.5L-18.2 -10.5Z" stroke="#ea580c" fill="none" stroke-width="2"></path></g><g transform="translate(47 328)"><path d="M0 -15L13 -7.5L13 7.5L0 15L-13 7.5L-13 -7.5Z" stroke="#ea580c" fill="none" stroke-width="2"></path></g><g transform="translate(350 350)"><path d="M0 -24L20.8 -12L20.8 12L0 24L-20.8 12L-20.8 -12Z" stroke="#ea580c" fill="none" stroke-width="2"></path></g><g transform="translate(887 19)"><path d="M0 -27L23.4 -13.5L23.4 13.5L0 27L-23.4 13.5L-23.4 -13.5Z" stroke="#ea580c" fill="none" stroke-width="2"></path></g><g transform="translate(503 83)"><path d="M0 -17L14.7 -8.5L14.7 8.5L0 17L-14.7 8.5L-14.7 -8.5Z" stroke="#ea580c" fill="none" stroke-width="2"></path></g><g transform="translate(534 200)"><path d="M0 -31L26.8 -15.5L26.8 15.5L0 31L-26.8 15.5L-26.8 -15.5Z" stroke="#ea580c" fill="none" stroke-width="2"></path></g><g transform="translate(99 67)"><path d="M0 -26L22.5 -13L22.5 13L0 26L-22.5 13L-22.5 -13Z" stroke="#ea580c" fill="none" stroke-width="2"></path></g><g transform="translate(231 418)"><path d="M0 -32L27.7 -16L27.7 16L0 32L-27.7 16L-27.7 -16Z" stroke="#ea580c" fill="none" stroke-width="2"></path></g><g transform="translate(728 158)"><path d="M0 -21L18.2 -10.5L18.2 10.5L0 21L-18.2 10.5L-18.2 -10.5Z" stroke="#ea580c" fill="none" stroke-width="2"></path></g><g transform="translate(184 174)"><path d="M0 -29L25.1 -14.5L25.1 14.5L0 29L-25.1 14.5L-25.1 -14.5Z" stroke="#ea580c" fill="none" stroke-width="2"></path></g><g transform="translate(147 422)"><path d="M0 -17L14.7 -8.5L14.7 8.5L0 17L-14.7 8.5L-14.7 -8.5Z" stroke="#ea580c" fill="none" stroke-width="2"></path></g><g transform="translate(703 233)"><path d="M0 -15L13 -7.5L13 7.5L0 15L-13 7.5L-13 -7.5Z" stroke="#ea580c" fill="none" stroke-width="2"></path></g><g transform="translate(854 135)"><path d="M0 -21L18.2 -10.5L18.2 10.5L0 21L-18.2 10.5L-18.2 -10.5Z" stroke="#ea580c" fill="none" stroke-width="2"></path></g><g transform="translate(456 281)"><path d="M0 -19L16.5 -9.5L16.5 9.5L0 19L-16.5 9.5L-16.5 -9.5Z" stroke="#ea580c" fill="none" stroke-width="2"></path></g><g transform="translate(269 313)"><path d="M0 -31L26.8 -15.5L26.8 15.5L0 31L-26.8 15.5L-26.8 -15.5Z" stroke="#ea580c" fill="none" stroke-width="2"></path></g><g transform="translate(633 26)"><path d="M0 -13L11.3 -6.5L11.3 6.5L0 13L-11.3 6.5L-11.3 -6.5Z" stroke="#ea580c" fill="none" stroke-width="2"></path></g><g transform="translate(83 524)"><path d="M0 -32L27.7 -16L27.7 16L0 32L-27.7 16L-27.7 -16Z" stroke="#ea580c" fill="none" stroke-width="2"></path></g><g transform="translate(279 169)"><path d="M0 -20L17.3 -10L17.3 10L0 20L-17.3 10L-17.3 -10Z" stroke="#ea580c" fill="none" stroke-width="2"></path></g><g transform="translate(809 21)"><path d="M0 -21L18.2 -10.5L18.2 10.5L0 21L-18.2 10.5L-18.2 -10.5Z" stroke="#ea580c" fill="none" stroke-width="2"></path></g><g transform="translate(928 97)"><path d="M0 -18L15.6 -9L15.6 9L0 18L-15.6 9L-15.6 -9Z" stroke="#ea580c" fill="none" stroke-width="2"></path></g><g transform="translate(812 355)"><path d="M0 -15L13 -7.5L13 7.5L0 15L-13 7.5L-13 -7.5Z" stroke="#ea580c" fill="none" stroke-width="2"></path></g><g transform="translate(177 494)"><path d="M0 -23L19.9 -11.5L19.9 11.5L0 23L-19.9 11.5L-19.9 -11.5Z" stroke="#ea580c" fill="none" stroke-width="2"></path></g><g transform="translate(618 323)"><path d="M0 -26L22.5 -13L22.5 13L0 26L-22.5 13L-22.5 -13Z" stroke="#ea580c" fill="none" stroke-width="2"></path></g><g transform="translate(584 398)"><path d="M0 -19L16.5 -9.5L16.5 9.5L0 19L-16.5 9.5L-16.5 -9.5Z" stroke="#ea580c" fill="none" stroke-width="2"></path></g><g transform="translate(482 370)"><path d="M0 -23L19.9 -11.5L19.9 11.5L0 23L-19.9 11.5L-19.9 -11.5Z" stroke="#ea580c" fill="none" stroke-width="2"></path></g><g transform="translate(507 524)"><path d="M0 -13L11.3 -6.5L11.3 6.5L0 13L-11.3 6.5L-11.3 -6.5Z" stroke="#ea580c" fill="none" stroke-width="2"></path></g><g transform="translate(362 429)"><path d="M0 -17L14.7 -8.5L14.7 8.5L0 17L-14.7 8.5L-14.7 -8.5Z" stroke="#ea580c" fill="none" stroke-width="2"></path></g></g></svg>